<svg width="753" height="966" viewBox="0 0 753 966" fill="none" xmlns="http://www.w3.org/2000/svg">
<rect width="753" height="966" rx="8" fill="white"/>
<g clip-path="url(#clip0_0_1)">
<path d="M412.119 519.806C410.18 519.806 408.298 520.042 406.493 520.478C401.073 510.898 390.792 504.432 379 504.432C367.208 504.432 356.927 510.899 351.507 520.478C349.702 520.042 347.82 519.806 345.881 519.806C332.692 519.806 322 530.498 322 543.687C322 556.877 332.692 567.569 345.881 567.569H371.905V553.378H360.048V553.226L378.775 533.668H379.225L397.952 553.226V553.378H386.096V567.569H412.119C425.308 567.569 436 556.877 436 543.687C436 530.498 425.308 519.806 412.119 519.806Z" fill="#9EA0A5"/>
</g>
<defs>
<clipPath id="clip0_0_1">
<rect width="114" height="114" fill="white" transform="translate(322 479)"/>
</clipPath>
</defs>
</svg>
